# xmcd CD database file generated by GCD 2.94
# 
# Track frame offsets:
#       150
#       12855
#       26045
#       38140
#       50057
#       62415
#       75257
#       87870
#       99897
#       113042
#       125380
#       138170
#       149972
#       162780
#       174637
#       187475
#       200500
#       214390
# 
# Disc length: 3020 seconds
# 
# Revision: 3
# Processed by: cddbd v1.4b41PL1 Copyright (c) Steve Scherf et al.
# Submitted via: GCD 2.94
# 
DISCID=fd0bca12
DTITLE=Brownie McGhee - Not Guilty Blues
DYEAR=1900
DGENRE=
TTITLE0=Picking My Tomatoes
TTITLE1=Born For Bad Luck
TTITLE2=I'm Callin' Daisy
TTITLE3=My Barkin' Bulldog Blues
TTITLE4=Let Me Tell You 'Bout My Baby
TTITLE5=Be Good To Me
TTITLE6=Step It Up And Go
TTITLE7=Not Guilty Blues
TTITLE8=Money Spending Woman
TTITLE9=Death Of Blind Boy Fuller
TTITLE10=Barbecue Any Old Time
TTITLE11=Million Lonesome Women
TTITLE12=Workingman's Blues
TTITLE13=Dealing With The Devil
TTITLE14=Key To My Door
TTITLE15=I'm A Black Woman's Man #2
TTITLE16=Try Me One More Time
TTITLE17=Swing Soldier Swing #2
EXTD=
EXTT0=
EXTT1=
EXTT2=
EXTT3=
EXTT4=
EXTT5=
EXTT6=
EXTT7=
EXTT8=
EXTT9=
EXTT10=
EXTT11=
EXTT12=
EXTT13=
EXTT14=
EXTT15=
EXTT16=
EXTT17=
PLAYORDER=
